<svg xmlns="http://www.w3.org/2000/svg" viewBox="0 0 760 470" width="760" height="470" font-family="Helvetica, Arial, sans-serif" font-size="12">
<rect width="760" height="470" fill="#ffffff"/>
<text x="70" y="26" font-size="16" font-weight="bold" fill="#111">P0031: 99215 share by patient complexity</text>
<text x="70" y="46" fill="#555">Synthetic data. Boxes: other providers' shares at each level. Point and bar: this provider with 95% confidence interval.</text>
<line x1="70" y1="378.0" x2="736" y2="378.0" stroke="#e6e6e6"/>
<text x="62" y="382.0" text-anchor="end" fill="#555">0%</text>
<line x1="70" y1="361.8" x2="736" y2="361.8" stroke="#e6e6e6"/>
<text x="62" y="365.8" text-anchor="end" fill="#555">5%</text>
<line x1="70" y1="345.6" x2="736" y2="345.6" stroke="#e6e6e6"/>
<text x="62" y="349.6" text-anchor="end" fill="#555">10%</text>
<line x1="70" y1="329.4" x2="736" y2="329.4" stroke="#e6e6e6"/>
<text x="62" y="333.4" text-anchor="end" fill="#555">15%</text>
<line x1="70" y1="313.2" x2="736" y2="313.2" stroke="#e6e6e6"/>
<text x="62" y="317.2" text-anchor="end" fill="#555">20%</text>
<line x1="70" y1="296.9" x2="736" y2="296.9" stroke="#e6e6e6"/>
<text x="62" y="300.9" text-anchor="end" fill="#555">25%</text>
<line x1="70" y1="280.7" x2="736" y2="280.7" stroke="#e6e6e6"/>
<text x="62" y="284.7" text-anchor="end" fill="#555">30%</text>
<line x1="70" y1="264.5" x2="736" y2="264.5" stroke="#e6e6e6"/>
<text x="62" y="268.5" text-anchor="end" fill="#555">35%</text>
<line x1="70" y1="248.3" x2="736" y2="248.3" stroke="#e6e6e6"/>
<text x="62" y="252.3" text-anchor="end" fill="#555">40%</text>
<line x1="70" y1="232.1" x2="736" y2="232.1" stroke="#e6e6e6"/>
<text x="62" y="236.1" text-anchor="end" fill="#555">45%</text>
<line x1="70" y1="215.9" x2="736" y2="215.9" stroke="#e6e6e6"/>
<text x="62" y="219.9" text-anchor="end" fill="#555">50%</text>
<line x1="70" y1="199.7" x2="736" y2="199.7" stroke="#e6e6e6"/>
<text x="62" y="203.7" text-anchor="end" fill="#555">55%</text>
<line x1="70" y1="183.5" x2="736" y2="183.5" stroke="#e6e6e6"/>
<text x="62" y="187.5" text-anchor="end" fill="#555">60%</text>
<line x1="70" y1="167.3" x2="736" y2="167.3" stroke="#e6e6e6"/>
<text x="62" y="171.3" text-anchor="end" fill="#555">65%</text>
<line x1="70" y1="151.1" x2="736" y2="151.1" stroke="#e6e6e6"/>
<text x="62" y="155.1" text-anchor="end" fill="#555">70%</text>
<line x1="70" y1="134.8" x2="736" y2="134.8" stroke="#e6e6e6"/>
<text x="62" y="138.8" text-anchor="end" fill="#555">75%</text>
<line x1="70" y1="118.6" x2="736" y2="118.6" stroke="#e6e6e6"/>
<text x="62" y="122.6" text-anchor="end" fill="#555">80%</text>
<line x1="70" y1="102.4" x2="736" y2="102.4" stroke="#e6e6e6"/>
<text x="62" y="106.4" text-anchor="end" fill="#555">85%</text>
<line x1="70" y1="86.2" x2="736" y2="86.2" stroke="#e6e6e6"/>
<text x="62" y="90.2" text-anchor="end" fill="#555">90%</text>
<line x1="70" y1="70.0" x2="736" y2="70.0" stroke="#e6e6e6"/>
<text x="62" y="74.0" text-anchor="end" fill="#555">95%</text>
<text transform="translate(18 224.0) rotate(-90)" text-anchor="middle" fill="#333">Share of visits billed 99215</text>
<line x1="125.5" y1="378.0" x2="125.5" y2="359.5" stroke="#7a7a7a"/>
<line x1="112.9" y1="378.0" x2="138.1" y2="378.0" stroke="#7a7a7a"/>
<line x1="112.9" y1="359.5" x2="138.1" y2="359.5" stroke="#7a7a7a"/>
<rect x="87.8" y="369.4" width="75.5" height="8.6" fill="#d9dde3" stroke="#7a7a7a"/>
<line x1="87.8" y1="374.2" x2="163.2" y2="374.2" stroke="#333" stroke-width="2"/>
<circle cx="125.5" cy="353.1" r="2.2" fill="none" stroke="#7a7a7a"/>
<circle cx="125.5" cy="353.1" r="2.2" fill="none" stroke="#7a7a7a"/>
<circle cx="125.5" cy="352.4" r="2.2" fill="none" stroke="#7a7a7a"/>
<circle cx="125.5" cy="352.2" r="2.2" fill="none" stroke="#7a7a7a"/>
<circle cx="125.5" cy="351.0" r="2.2" fill="none" stroke="#7a7a7a"/>
<circle cx="125.5" cy="351.0" r="2.2" fill="none" stroke="#7a7a7a"/>
<circle cx="125.5" cy="351.0" r="2.2" fill="none" stroke="#7a7a7a"/>
<circle cx="125.5" cy="335.4" r="2.2" fill="none" stroke="#7a7a7a"/>
<circle cx="125.5" cy="330.7" r="2.2" fill="none" stroke="#7a7a7a"/>
<circle cx="125.5" cy="327.7" r="2.2" fill="none" stroke="#7a7a7a"/>
<circle cx="125.5" cy="326.8" r="2.2" fill="none" stroke="#7a7a7a"/>
<circle cx="125.5" cy="320.6" r="2.2" fill="none" stroke="#7a7a7a"/>
<circle cx="125.5" cy="313.2" r="2.2" fill="none" stroke="#7a7a7a"/>
<circle cx="125.5" cy="311.7" r="2.2" fill="none" stroke="#7a7a7a"/>
<circle cx="125.5" cy="303.2" r="2.2" fill="none" stroke="#7a7a7a"/>
<circle cx="125.5" cy="276.4" r="2.2" fill="none" stroke="#7a7a7a"/>
<line x1="125.5" y1="366.3" x2="125.5" y2="175.5" stroke="#c2410c" stroke-width="2" stroke-dasharray="3 3"/>
<line x1="119.5" y1="366.3" x2="131.5" y2="366.3" stroke="#c2410c" stroke-width="2"/>
<line x1="119.5" y1="175.5" x2="131.5" y2="175.5" stroke="#c2410c" stroke-width="2"/>
<circle cx="125.5" cy="313.2" r="5" fill="#ffffff" stroke="#c2410c" stroke-width="2"/>
<text x="125.5" y="398" text-anchor="middle" font-weight="bold" fill="#222">0</text>
<text x="125.5" y="414" text-anchor="middle" fill="#555">5 visits</text>
<text x="125.5" y="428" text-anchor="middle" fill="#555">1 billed 99215</text>
<text x="125.5" y="442" text-anchor="middle" fill="#a16207">thin (under 10)</text>
<line x1="236.5" y1="378.0" x2="236.5" y2="343.3" stroke="#7a7a7a"/>
<line x1="223.9" y1="378.0" x2="249.1" y2="378.0" stroke="#7a7a7a"/>
<line x1="223.9" y1="343.3" x2="249.1" y2="343.3" stroke="#7a7a7a"/>
<rect x="198.8" y="363.9" width="75.5" height="14.1" fill="#d9dde3" stroke="#7a7a7a"/>
<line x1="198.8" y1="372.9" x2="274.2" y2="372.9" stroke="#333" stroke-width="2"/>
<circle cx="236.5" cy="341.6" r="2.2" fill="none" stroke="#7a7a7a"/>
<circle cx="236.5" cy="339.1" r="2.2" fill="none" stroke="#7a7a7a"/>
<circle cx="236.5" cy="333.8" r="2.2" fill="none" stroke="#7a7a7a"/>
<circle cx="236.5" cy="332.3" r="2.2" fill="none" stroke="#7a7a7a"/>
<circle cx="236.5" cy="326.8" r="2.2" fill="none" stroke="#7a7a7a"/>
<circle cx="236.5" cy="326.7" r="2.2" fill="none" stroke="#7a7a7a"/>
<circle cx="236.5" cy="326.6" r="2.2" fill="none" stroke="#7a7a7a"/>
<circle cx="236.5" cy="324.5" r="2.2" fill="none" stroke="#7a7a7a"/>
<circle cx="236.5" cy="320.2" r="2.2" fill="none" stroke="#7a7a7a"/>
<circle cx="236.5" cy="315.6" r="2.2" fill="none" stroke="#7a7a7a"/>
<circle cx="236.5" cy="300.2" r="2.2" fill="none" stroke="#7a7a7a"/>
<circle cx="236.5" cy="280.7" r="2.2" fill="none" stroke="#7a7a7a"/>
<circle cx="236.5" cy="275.4" r="2.2" fill="none" stroke="#7a7a7a"/>
<line x1="236.5" y1="363.2" x2="236.5" y2="151.3" stroke="#c2410c" stroke-width="2" stroke-dasharray="3 3"/>
<line x1="230.5" y1="363.2" x2="242.5" y2="363.2" stroke="#c2410c" stroke-width="2"/>
<line x1="230.5" y1="151.3" x2="242.5" y2="151.3" stroke="#c2410c" stroke-width="2"/>
<circle cx="236.5" cy="296.9" r="5" fill="#ffffff" stroke="#c2410c" stroke-width="2"/>
<text x="236.5" y="398" text-anchor="middle" font-weight="bold" fill="#222">1</text>
<text x="236.5" y="414" text-anchor="middle" fill="#555">4 visits</text>
<text x="236.5" y="428" text-anchor="middle" fill="#555">1 billed 99215</text>
<text x="236.5" y="442" text-anchor="middle" fill="#a16207">thin (under 10)</text>
<line x1="347.5" y1="378.0" x2="347.5" y2="324.0" stroke="#7a7a7a"/>
<line x1="334.9" y1="378.0" x2="360.1" y2="378.0" stroke="#7a7a7a"/>
<line x1="334.9" y1="324.0" x2="360.1" y2="324.0" stroke="#7a7a7a"/>
<rect x="309.8" y="355.5" width="75.5" height="22.1" fill="#d9dde3" stroke="#7a7a7a"/>
<line x1="309.8" y1="368.6" x2="385.2" y2="368.6" stroke="#333" stroke-width="2"/>
<circle cx="347.5" cy="318.8" r="2.2" fill="none" stroke="#7a7a7a"/>
<circle cx="347.5" cy="317.7" r="2.2" fill="none" stroke="#7a7a7a"/>
<circle cx="347.5" cy="308.5" r="2.2" fill="none" stroke="#7a7a7a"/>
<circle cx="347.5" cy="300.4" r="2.2" fill="none" stroke="#7a7a7a"/>
<circle cx="347.5" cy="299.7" r="2.2" fill="none" stroke="#7a7a7a"/>
<circle cx="347.5" cy="296.9" r="2.2" fill="none" stroke="#7a7a7a"/>
<circle cx="347.5" cy="288.3" r="2.2" fill="none" stroke="#7a7a7a"/>
<circle cx="347.5" cy="282.6" r="2.2" fill="none" stroke="#7a7a7a"/>
<circle cx="347.5" cy="278.8" r="2.2" fill="none" stroke="#7a7a7a"/>
<circle cx="347.5" cy="241.0" r="2.2" fill="none" stroke="#7a7a7a"/>
<line x1="347.5" y1="333.2" x2="347.5" y2="180.4" stroke="#c2410c" stroke-width="2"/>
<line x1="341.5" y1="333.2" x2="353.5" y2="333.2" stroke="#c2410c" stroke-width="2"/>
<line x1="341.5" y1="180.4" x2="353.5" y2="180.4" stroke="#c2410c" stroke-width="2"/>
<circle cx="347.5" cy="269.9" r="5" fill="#c2410c" stroke="#c2410c" stroke-width="2"/>
<text x="347.5" y="398" text-anchor="middle" font-weight="bold" fill="#222">2</text>
<text x="347.5" y="414" text-anchor="middle" fill="#555">12 visits</text>
<text x="347.5" y="428" text-anchor="middle" fill="#555">4 billed 99215</text>
<line x1="458.5" y1="378.0" x2="458.5" y2="301.2" stroke="#7a7a7a"/>
<line x1="445.9" y1="378.0" x2="471.1" y2="378.0" stroke="#7a7a7a"/>
<line x1="445.9" y1="301.2" x2="471.1" y2="301.2" stroke="#7a7a7a"/>
<rect x="420.8" y="342.9" width="75.5" height="28.3" fill="#d9dde3" stroke="#7a7a7a"/>
<line x1="420.8" y1="358.9" x2="496.2" y2="358.9" stroke="#333" stroke-width="2"/>
<circle cx="458.5" cy="296.9" r="2.2" fill="none" stroke="#7a7a7a"/>
<circle cx="458.5" cy="291.5" r="2.2" fill="none" stroke="#7a7a7a"/>
<circle cx="458.5" cy="291.5" r="2.2" fill="none" stroke="#7a7a7a"/>
<circle cx="458.5" cy="291.0" r="2.2" fill="none" stroke="#7a7a7a"/>
<circle cx="458.5" cy="285.4" r="2.2" fill="none" stroke="#7a7a7a"/>
<circle cx="458.5" cy="282.4" r="2.2" fill="none" stroke="#7a7a7a"/>
<circle cx="458.5" cy="281.7" r="2.2" fill="none" stroke="#7a7a7a"/>
<circle cx="458.5" cy="277.4" r="2.2" fill="none" stroke="#7a7a7a"/>
<circle cx="458.5" cy="276.7" r="2.2" fill="none" stroke="#7a7a7a"/>
<circle cx="458.5" cy="274.8" r="2.2" fill="none" stroke="#7a7a7a"/>
<circle cx="458.5" cy="269.9" r="2.2" fill="none" stroke="#7a7a7a"/>
<circle cx="458.5" cy="255.0" r="2.2" fill="none" stroke="#7a7a7a"/>
<circle cx="458.5" cy="251.9" r="2.2" fill="none" stroke="#7a7a7a"/>
<circle cx="458.5" cy="235.3" r="2.2" fill="none" stroke="#7a7a7a"/>
<line x1="458.5" y1="354.3" x2="458.5" y2="253.1" stroke="#c2410c" stroke-width="2"/>
<line x1="452.5" y1="354.3" x2="464.5" y2="354.3" stroke="#c2410c" stroke-width="2"/>
<line x1="452.5" y1="253.1" x2="464.5" y2="253.1" stroke="#c2410c" stroke-width="2"/>
<circle cx="458.5" cy="319.1" r="5" fill="#c2410c" stroke="#c2410c" stroke-width="2"/>
<text x="458.5" y="398" text-anchor="middle" font-weight="bold" fill="#222">3</text>
<text x="458.5" y="414" text-anchor="middle" fill="#555">22 visits</text>
<text x="458.5" y="428" text-anchor="middle" fill="#555">4 billed 99215</text>
<line x1="569.5" y1="378.0" x2="569.5" y2="282.6" stroke="#7a7a7a"/>
<line x1="556.9" y1="378.0" x2="582.1" y2="378.0" stroke="#7a7a7a"/>
<line x1="556.9" y1="282.6" x2="582.1" y2="282.6" stroke="#7a7a7a"/>
<rect x="531.8" y="329.4" width="75.5" height="38.2" fill="#d9dde3" stroke="#7a7a7a"/>
<line x1="531.8" y1="351.0" x2="607.2" y2="351.0" stroke="#333" stroke-width="2"/>
<circle cx="569.5" cy="269.9" r="2.2" fill="none" stroke="#7a7a7a"/>
<circle cx="569.5" cy="253.3" r="2.2" fill="none" stroke="#7a7a7a"/>
<circle cx="569.5" cy="235.8" r="2.2" fill="none" stroke="#7a7a7a"/>
<circle cx="569.5" cy="228.4" r="2.2" fill="none" stroke="#7a7a7a"/>
<circle cx="569.5" cy="225.4" r="2.2" fill="none" stroke="#7a7a7a"/>
<circle cx="569.5" cy="188.9" r="2.2" fill="none" stroke="#7a7a7a"/>
<line x1="569.5" y1="245.3" x2="569.5" y2="77.0" stroke="#c2410c" stroke-width="2" stroke-dasharray="3 3"/>
<line x1="563.5" y1="245.3" x2="575.5" y2="245.3" stroke="#c2410c" stroke-width="2"/>
<line x1="563.5" y1="77.0" x2="575.5" y2="77.0" stroke="#c2410c" stroke-width="2"/>
<circle cx="569.5" cy="134.8" r="5" fill="#ffffff" stroke="#c2410c" stroke-width="2"/>
<text x="569.5" y="398" text-anchor="middle" font-weight="bold" fill="#222">4</text>
<text x="569.5" y="414" text-anchor="middle" fill="#555">8 visits</text>
<text x="569.5" y="428" text-anchor="middle" fill="#555">6 billed 99215</text>
<text x="569.5" y="442" text-anchor="middle" fill="#a16207">thin (under 10)</text>
<line x1="680.5" y1="378.0" x2="680.5" y2="226.7" stroke="#7a7a7a"/>
<line x1="667.9" y1="378.0" x2="693.1" y2="378.0" stroke="#7a7a7a"/>
<line x1="667.9" y1="226.7" x2="693.1" y2="226.7" stroke="#7a7a7a"/>
<rect x="642.8" y="297.4" width="75.5" height="48.2" fill="#d9dde3" stroke="#7a7a7a"/>
<line x1="642.8" y1="326.9" x2="718.2" y2="326.9" stroke="#333" stroke-width="2"/>
<circle cx="680.5" cy="215.9" r="2.2" fill="none" stroke="#7a7a7a"/>
<circle cx="680.5" cy="205.9" r="2.2" fill="none" stroke="#7a7a7a"/>
<circle cx="680.5" cy="171.7" r="2.2" fill="none" stroke="#7a7a7a"/>
<circle cx="680.5" cy="125.8" r="2.2" fill="none" stroke="#7a7a7a"/>
<line x1="680.5" y1="338.9" x2="680.5" y2="168.6" stroke="#c2410c" stroke-width="2" stroke-dasharray="3 3"/>
<line x1="674.5" y1="338.9" x2="686.5" y2="338.9" stroke="#c2410c" stroke-width="2"/>
<line x1="674.5" y1="168.6" x2="686.5" y2="168.6" stroke="#c2410c" stroke-width="2"/>
<circle cx="680.5" cy="269.9" r="5" fill="#ffffff" stroke="#c2410c" stroke-width="2"/>
<text x="680.5" y="398" text-anchor="middle" font-weight="bold" fill="#222">5+</text>
<text x="680.5" y="414" text-anchor="middle" fill="#555">9 visits</text>
<text x="680.5" y="428" text-anchor="middle" fill="#555">3 billed 99215</text>
<text x="680.5" y="442" text-anchor="middle" fill="#a16207">thin (under 10)</text>
<text x="403.0" y="458" text-anchor="middle" fill="#333">Chronic conditions of the patient</text>
</svg>